<svg id="Layer_1" data-name="Layer 1" xmlns="http://www.w3.org/2000/svg" xmlns:xlink="http://www.w3.org/1999/xlink" viewBox="0 0 2021.08 617.6"><defs><style>.cls-1,.cls-2{fill:#35479d;}.cls-1,.cls-4{stroke:#fff;stroke-miterlimit:10;}.cls-3{clip-path:url(#clip-path);}.cls-4{fill:none;}</style><clipPath id="clip-path" transform="translate(769.68 187.99)"><rect class="cls-1" width="709" height="394"/></clipPath></defs><rect class="cls-2" x="769.68" y="187.99" width="709" height="394"/><g class="cls-3"><path class="cls-1" d="M0,0H709V394H0Z" transform="translate(769.68 187.99)"/><path class="cls-1" d="M88.39,43.37c-56.57,188.5-268,212.5-339.26,200.56a8.65,8.65,0,0,0-10.19,8.32v62a8,8,0,0,0,7.32,8L993.8,429.08a8,8,0,0,0,8.68-8V345.87a8.18,8.18,0,0,0-8.17-8c-451.94-2.38-521-202.32-651.49-372.9C209.87-208.8,120.76-64.49,88.39,43.37Z" transform="translate(769.68 187.99)"/><path class="cls-1" d="M343.75,199.25C287.64,10.36,78-13.78,7.17-1.85A8.67,8.67,0,0,1-3-10.18V-72.36a8,8,0,0,1,7.31-8L1242.21-187.46a8,8,0,0,1,8.69,8V-104a8.18,8.18,0,0,1-8.18,8c-448.44,2.4-516.95,202.85-646.47,373.87C464.31,452.08,375.87,307.39,343.75,199.25Z" transform="translate(769.68 187.99)"/><path class="cls-1" d="M-372.11,15.91c-65,91.61-310,102.36-388.22,96.16a8.18,8.18,0,0,0-8.85,8.15v21.66a8,8,0,0,0,7.71,8L658.26,201.31a8,8,0,0,0,8.29-8V165.42a8.17,8.17,0,0,0-8.18-8C143.85,156.4,65.41,60.25-83-21.78-234.07-105.27-335.33-35.92-372.11,15.91Z" transform="translate(769.68 187.99)"/><path class="cls-1" d="M-452.74-23.26C-501,163.36-680.1,188.75-743.28,177.65c-5.35-.94-10.66,3-10.66,8.44v61.64a8,8,0,0,0,7.21,8L326.35,362.33a8,8,0,0,0,8.79-8V279.24a8.2,8.2,0,0,0-8.16-8C-61.55,268.46-121,68.75-233.44-101.68-348-275.43-424.84-131.11-452.74-23.26Z" transform="translate(769.68 187.99)"/></g><rect class="cls-4" x="769.68" y="187.99" width="709" height="394"/></svg>