<?xml version="1.0" encoding="utf-8"?>
<!-- Generator: Adobe Illustrator 25.4.1, SVG Export Plug-In . SVG Version: 6.00 Build 0)  -->
<svg version="1.1" id="Layer_1" xmlns="http://www.w3.org/2000/svg" xmlns:xlink="http://www.w3.org/1999/xlink" x="0px" y="0px"
	 viewBox="0 0 709 394" style="enable-background:new 0 0 709 394;" xml:space="preserve">
<style type="text/css">
	.st0{clip-path:url(#SVGID_00000067921460264704329530000006531724000097047224_);}
	.st1{fill:#35479D;stroke:#FFFFFF;stroke-miterlimit:10;}
</style>
<g>
	<defs>
		<rect id="SVGID_1_" width="709" height="394"/>
	</defs>
	<use xlink:href="#SVGID_1_"  style="overflow:visible;fill:#35479D;"/>
	<clipPath id="SVGID_00000023999432246975476150000015360419855915902854_">
		<use xlink:href="#SVGID_1_"  style="overflow:visible;"/>
	</clipPath>
	<g style="clip-path:url(#SVGID_00000023999432246975476150000015360419855915902854_);">
		<path class="st1" d="M0,0h709v394H0V0z"/>
		<path class="st1" d="M88.4,43.4c-56.6,188.5-268,212.5-339.3,200.6c-5.2-0.9-10.2,3-10.2,8.3v62c0,4.2,3.2,7.6,7.3,8L993.8,429.1
			c4.7,0.4,8.7-3.3,8.7-8v-75.2c0-4.4-3.8-8-8.2-8c-451.9-2.4-521-202.3-651.5-372.9C209.9-208.8,120.8-64.5,88.4,43.4z"/>
		<path class="st1" d="M343.8,199.3C287.6,10.4,78-13.8,7.2-1.8C1.9-1-3-4.9-3-10.2v-62.2c0-4.2,3.2-7.6,7.3-8l1237.9-107.1
			c4.7-0.4,8.7,3.3,8.7,8v75.5c0,4.4-3.8,8-8.2,8c-448.4,2.4-516.9,202.8-646.5,373.9C464.3,452.1,375.9,307.4,343.8,199.3z"/>
		<path class="st1" d="M-372.1,15.9c-65,91.6-310,102.4-388.2,96.2c-4.8-0.4-8.9,3.4-8.9,8.1v21.7c0,4.3,3.4,7.8,7.7,8l1419.7,51.4
			c4.5,0.2,8.3-3.5,8.3-8v-27.9c0-4.4-3.8-8-8.2-8c-514.5-1-593-97.2-741.4-179.2C-234.1-105.3-335.3-35.9-372.1,15.9z"/>
		<path class="st1" d="M-452.7-23.3c-48.3,186.6-227.4,212-290.5,200.9c-5.3-0.9-10.7,3-10.7,8.4v61.6c0,4.1,3.1,7.6,7.2,8
			L326.4,362.3c4.7,0.5,8.8-3.2,8.8-8v-75.1c0-4.4-3.7-8-8.2-8c-388.5-2.8-448-202.5-560.4-372.9C-348-275.4-424.8-131.1-452.7-23.3
			z"/>
	</g>
	<use xlink:href="#SVGID_1_"  style="overflow:visible;fill:none;stroke:#FFFFFF;stroke-miterlimit:10;"/>
</g>
</svg>
