<svg id="Layer_1" data-name="Layer 1" xmlns="http://www.w3.org/2000/svg" viewBox="0 0 763.9 714.85"><defs><style>.cls-1{opacity:0.25;}.cls-2{fill:#6fbeff;}</style></defs><g class="cls-1"><path class="cls-2" d="M457.6,630.27c-2.37.75-4.73,1.52-7.1,2.3-.56.84-1.12,1.69-1.66,2.55C451.77,633.53,454.69,631.9,457.6,630.27Z" transform="translate(-58 -4)"/><path class="cls-2" d="M435.76,637.59l-5.52,1.94,4.2.44C434.87,639.17,435.32,638.38,435.76,637.59Z" transform="translate(-58 -4)"/><path class="cls-2" d="M386.53,617.75l.3-.14-10.9-.34v1C379.47,618.07,383,617.9,386.53,617.75Z" transform="translate(-58 -4)"/><path class="cls-2" d="M472.59,707.94l1-.5-7.64.57Q469.24,708.07,472.59,707.94Z" transform="translate(-58 -4)"/><path class="cls-2" d="M435.24,710.27l-2.89.22-5.72.4c-4.12,1-8.23,2-12.32,3.06l-.74.36q-2.2,2.27-4.4,4.54,21-.4,41.89-1.58l2.44-.14a90.82,90.82,0,0,1-14.66-2.93A5.5,5.5,0,0,1,435.24,710.27Z" transform="translate(-58 -4)"/><path class="cls-2" d="M513.28,40.45l-8.23,2-1.88,1.81q4.45.39,9,.84l1.14-.94Z" transform="translate(-58 -4)"/><path class="cls-2" d="M388.57,18.34l4.88-.26,2.28-.71c2.3-1.26,4.61-2.5,6.91-3.74l-.32-.29Q395.45,15.86,388.57,18.34Z" transform="translate(-58 -4)"/><path class="cls-2" d="M452,7.92l.24-.11-3.47,0-2.24.91C448.37,8.42,450.2,8.16,452,7.92Z" transform="translate(-58 -4)"/><path class="cls-2" d="M468.12,33.19l2.39-.25.88-.54Z" transform="translate(-58 -4)"/><path class="cls-2" d="M769.59,127.08l3.63-.55-2.87-.64Z" transform="translate(-58 -4)"/><path class="cls-2" d="M786.71,75.53c-5.8.09-11.59.21-17.38.33q8.05.57,16.11,1.17L786,77Z" transform="translate(-58 -4)"/><path class="cls-2" d="M803.91,121.14A1.18,1.18,0,0,0,804,121c-2.7.29-5.41.58-8.12.85l1.92.54Q800.87,121.76,803.91,121.14Z" transform="translate(-58 -4)"/><path class="cls-2" d="M792.56,63.22c.19-.42.37-.84.56-1.25q-9.17-.24-18.24-.33l-2.17,1.64Q782.64,63.21,792.56,63.22Z" transform="translate(-58 -4)"/><path class="cls-2" d="M814.78,53.06l3.81.23.68-.71h0Z" transform="translate(-58 -4)"/><path class="cls-2" d="M809.1,63.3l.68-.72c-1.87-.1-3.75-.18-5.62-.26-.14.32-.27.64-.41,1Z" transform="translate(-58 -4)"/><path class="cls-2" d="M820.61,31.74c-1.82,1-3.63,2-5.44,3.05-.16.45-.33.9-.5,1.35q3.62.4,7.23.84Q821.35,34.35,820.61,31.74Z" transform="translate(-58 -4)"/><path class="cls-2" d="M724.2,10.37l.39.18q3-2.54,6.11-5.05L719.83,6.58A5.24,5.24,0,0,1,724.2,10.37Z" transform="translate(-58 -4)"/><path class="cls-2" d="M754.59,4h-5.41c-3.17,2.5-6.34,5-9.49,7.53l9.84-1.92C751.2,7.73,752.9,5.87,754.59,4Z" transform="translate(-58 -4)"/><path class="cls-2" d="M748,28.23l-2.46.29c-.55.63-1.1,1.27-1.66,1.9l2.28-.38Z" transform="translate(-58 -4)"/><path class="cls-2" d="M810.66,9.92c-.46-.71-.94-1.4-1.42-2.09l-2.32.48q-1.35,2.2-2.77,4.39l.82-.07Z" transform="translate(-58 -4)"/><path class="cls-2" d="M793.17,11.09l-5.39,1.06-8.24,2.9q5.84-.62,11.68-1.17Q792.21,12.49,793.17,11.09Z" transform="translate(-58 -4)"/><path class="cls-2" d="M764.2,26.36l-.84.79c4.65-.76,9.3-1.52,14-2.25C772.94,25.37,768.57,25.87,764.2,26.36Z" transform="translate(-58 -4)"/><path class="cls-2" d="M687.78,22.08c2.52-.55,5.05-1.11,7.58-1.64q9.09-1.92,18.18-3.74l-.45-.17q-9.35.11-18.51,1Z" transform="translate(-58 -4)"/><path class="cls-2" d="M82.39,131.59,79.24,133l4.7-1Z" transform="translate(-58 -4)"/><path class="cls-2" d="M118.89,123.87,117.51,125q4.26-.92,8.51-1.86l.18-.11Z" transform="translate(-58 -4)"/><path class="cls-2" d="M168.59,124.05l4-1.06,0,0-4.43,1Z" transform="translate(-58 -4)"/><path class="cls-2" d="M77.11,22.61a299.88,299.88,0,0,1,35.08-5c-.3-.72-.59-1.43-.88-2.15Q92,18.55,72.86,22.58C74.28,22.59,75.7,22.59,77.11,22.61Z" transform="translate(-58 -4)"/><path class="cls-2" d="M114.93,62.84l-3,.11-.94.4c.56.08,1.12.14,1.69.2l1-.2Z" transform="translate(-58 -4)"/><path class="cls-2" d="M73.21,66.88l-5.27,2.79,7.09-3Z" transform="translate(-58 -4)"/><path class="cls-2" d="M70,6.94C66.2,6,62.36,5,58.54,4H58V9.85l9.49-1.54Z" transform="translate(-58 -4)"/><path class="cls-2" d="M114.77,74l-1.68.33-1.91.81,1.5-.06,4.24-.91Z" transform="translate(-58 -4)"/><path class="cls-2" d="M157.33,26.32l-1.94,1.25,10.13,1,4.12-1.7C165.48,26.61,161.35,26.42,157.33,26.32Z" transform="translate(-58 -4)"/><path class="cls-2" d="M666.32,417.85c-1.58,2.47-3.24,4.89-5,7.29q5.52-2.91,11.06-5.78V418.3Z" transform="translate(-58 -4)"/><path class="cls-2" d="M647.83,426.38c-2.56,1.43-5.14,2.82-7.77,4.15h4.37Q646.17,428.48,647.83,426.38Z" transform="translate(-58 -4)"/><path class="cls-2" d="M583.36,412.15q5.71-.86,11.43-1.67c-2.94-.36-5.89-.74-8.83-1.12Z" transform="translate(-58 -4)"/><path class="cls-2" d="M577.5,319.47l2.2-1.21c-3.26.65-6.52,1.32-9.78,2,2,0,4,0,6,.07Z" transform="translate(-58 -4)"/><path class="cls-2" d="M595.44,399.47l-.91.92q5.87.74,11.74,1.44l4.8-3.82Q603.24,398.66,595.44,399.47Z" transform="translate(-58 -4)"/><path class="cls-2" d="M647.62,396.09q-6.15.15-12.28.41-4.07,3.15-8.14,6.29a1.71,1.71,0,0,1-.11.14q11-3.26,22-6.47A3.94,3.94,0,0,1,647.62,396.09Z" transform="translate(-58 -4)"/><path class="cls-2" d="M535.09,355.73c2.73-1,5.46-2,8.19-3l-.62-.13-7.57,2.66Z" transform="translate(-58 -4)"/><path class="cls-2" d="M331.82,307.61l-1.64.79-1.2,1.4,3.47-2.12Z" transform="translate(-58 -4)"/><path class="cls-2" d="M351.87,332.38q-4.61,1.19-9.24,2.17l4.85-.15Z" transform="translate(-58 -4)"/><path class="cls-2" d="M354.3,359.16l-2.33,1a4.7,4.7,0,0,1-.16,1.36l2.49.7Z" transform="translate(-58 -4)"/><path class="cls-2" d="M274.6,424.69q15.25-6.19,30.46-12.5c-15,4-29.75,8.54-44.25,13.68.36.34.75.66,1.12,1Q268.26,425.73,274.6,424.69Z" transform="translate(-58 -4)"/><path class="cls-2" d="M338,390.52l7.79-2.84c-1.44-.52-2.88-1-4.33-1.49q-6.9,2.79-13.73,5.65c2.8,0,5.59,0,8.37-.07A5.12,5.12,0,0,1,338,390.52Z" transform="translate(-58 -4)"/><path class="cls-2" d="M346.36,428.65c-2.42.09-4.83.2-7.25.35-.45.52-.92,1-1.39,1.53h4.71l.81-.38Z" transform="translate(-58 -4)"/><path class="cls-2" d="M304.65,386.18q-8.23,1.77-16.45,3.66l-1.57.78q3.22.22,6.44.4C296.93,389.41,300.79,387.78,304.65,386.18Z" transform="translate(-58 -4)"/><path class="cls-2" d="M221.41,415.53a5.39,5.39,0,0,1-2.57-7.54l-1.87.55v9.88l2.79-1.73Z" transform="translate(-58 -4)"/><path class="cls-2" d="M235.16,299.46l-3.8-.19q-.81,2.52-1.56,5.05l3.2-.5Q234.05,301.63,235.16,299.46Z" transform="translate(-58 -4)"/><path class="cls-2" d="M298.66,322.74c-.07.46-.13.92-.19,1.38l3.56-1.44Z" transform="translate(-58 -4)"/><path class="cls-2" d="M287.72,326.2l-2.81,1-1.6,3.14,4.1-1.69C287.51,327.84,287.6,327,287.72,326.2Z" transform="translate(-58 -4)"/><path class="cls-2" d="M260.41,314.39c3.44-2.24,6.91-4.45,10.38-6.63l-5,.87c-1.92.9-3.85,1.81-5.76,2.73q-1.57,1.81-3.13,3.65l2.43-.3Z" transform="translate(-58 -4)"/><path class="cls-2" d="M245.53,300.08c-.35.63-.69,1.27-1,1.9l8.69-1.41C250.64,300.4,248.08,300.23,245.53,300.08Z" transform="translate(-58 -4)"/><path class="cls-2" d="M262.49,349.83q-8.06,3.48-16.07,7,7-1.17,13.93-2.36C261.06,352.94,261.77,351.38,262.49,349.83Z" transform="translate(-58 -4)"/></g></svg>