<svg id="Layer_1" data-name="Layer 1" xmlns="http://www.w3.org/2000/svg" viewBox="0 0 40.13 35.81"><path d="M65.24,1.27l-1.35.07-.19,0-.55.06-.12,0-.42.05-.12,0-.25,0-.13,0c-.43.07-1.09.2-1.43.29l-.17,0c-.4.1-1.06.28-1.36.38l-.23.08-.51.17-.16.06c-.44.16-.89.34-1.36.55l-.56.26-.23.11-.06,0-.13.07-.15.07-.08,0-.62.33-.12.08-.45.26-.33.21-.11.07-.61.41-.09.07-.28.19-.14.11-.16.12-.37.3L52.31,6,52,6.24c-.32.28-.83.75-1.05,1l-.11.11-.3.31-.16.17L50.21,8l-.29.32-.31.38c-.27.32-.69.88-1,1.27s-.36.55-.6.95c-.08.12-.3.52-.36.65s-.18.34-.2.38,0,.1-.08.16a1.28,1.28,0,0,0-.07.16l-.07.14c0,.06-.06.14-.08.17a.58.58,0,0,1-.05.11l-.17.41c-.12.28-.29.75-.39,1l-.14.47,0,.13,0,.13,0,.11-.07.26a.65.65,0,0,0,0,.11s0,.08,0,.13l0,.12a1,1,0,0,0,0,.11.43.43,0,0,1,0,.05.51.51,0,0,1,0,.09s0,.19,0,.21a1.11,1.11,0,0,1,0,.13l-.05.31,0,.11v.08l0,.2a1,1,0,0,0,0,.22.87.87,0,0,0,0,.1s0,.08,0,.1a.78.78,0,0,0,0,.09.46.46,0,0,0,0,.1.38.38,0,0,0,0,.12c0,.18,0,.46-.06.8,0,.53,0,1.6,0,2a1.23,1.23,0,0,1,0,.2,5,5,0,0,0,.06.55c0,.17.05.4.07.49s0,.06,0,.07,0,.13,0,.15v.07l0,.22,0,.07a.15.15,0,0,0,0,.06s0,.05,0,.06,0,.09,0,.21l0,.09c0,.05,0,.09,0,.1v0s0,0,0,.05,0,.09,0,.15a.87.87,0,0,1,0,.13l0,.08a1.8,1.8,0,0,1,0,.19l0,.06s.08.27.09.33a18.53,18.53,0,0,0,.83,2.2,2.12,2.12,0,0,1,.1.22l.05.09s0,.06,0,.07l0,.08c.18.37.55,1,.8,1.43s.37.58.5.75a.67.67,0,0,0,.07.11c.19.28.55.75.71.94l.06.08.31.36.05.06c.09.11.36.4.5.55s.36.38.44.45l.08.08c.19.2.68.64,1,.87l.62.51c.31.25.67.5,1,.75l.43.29.07,0,.32.2.62.37c.39.23.89.49,1.35.71.3.15.82.37,1.16.51l.24.1.2.08.08,0,.07,0,.14,0,.13.05.36.12.15,0c.29.1.76.24.95.29l.1,0,.5.13.2,0,.55.12.39.08.31.06.12,0c.3.05.61.1,1,.14l.13,0,.57.06.19,0,.47,0h.24c.64,0,1.87,0,2.5,0h.24l.47,0L68,37l.56-.06.15,0,.46-.06.12,0,.11,0,.8-.14.77-.17.21-.05.82-.21.14,0,.51-.15.3-.1,0,0c.29-.09.64-.22.78-.28l.11,0,.55-.22L75.2,35a3.25,3.25,0,0,0,.37-.18l.38-.19,0,0,.15-.08.16-.09,0,0,.11-.06.16-.09.12-.07.58-.35.67-.43.11-.08.36-.25.1-.07.11-.08c.32-.24.37-.28.71-.56s1-.84,1.3-1.16S81,31,81,30.89l.25-.26.11-.12c.21-.22.44-.49.69-.79s.55-.71.71-.94l.11-.14c.09-.13.4-.59.54-.83.29-.47.62-1,.83-1.49l0-.1c.07-.14.27-.6.35-.8s.25-.62.34-.88l.1-.28,0-.11s0-.07,0-.07l0-.09a.84.84,0,0,0,0-.12l0-.1a.19.19,0,0,0,0-.08s0-.09,0-.15a1.32,1.32,0,0,0,0-.13l0-.12a1.94,1.94,0,0,0,.06-.22s0-.11,0-.17a.45.45,0,0,0,0-.08l0-.06s0-.05,0-.06l0-.09c0-.12,0-.14,0-.19l0-.09v-.09a1.74,1.74,0,0,0,.05-.22l0-.11a.78.78,0,0,1,0-.09v-.08l0-.07a.25.25,0,0,1,0-.08c0-.09,0-.21,0-.3l0-.16s0-.08,0-.1,0-.06,0-.1,0-.09,0-.11,0-.22,0-.31,0-.15,0-.2,0-.15,0-.2,0-.13,0-.17c0-.36,0-1.18,0-1.53s0-.58,0-.77,0-.15,0-.23,0-.08,0-.1,0-.36-.06-.48,0-.06,0-.09,0-.08,0-.22,0-.11,0-.25,0-.1,0-.11a.2.2,0,0,1,0-.05l0-.07c0-.09-.07-.34-.08-.41a.66.66,0,0,0,0-.1s0-.13,0-.2a.21.21,0,0,1,0-.06,0,0,0,0,0,0,0,3.94,3.94,0,0,0-.1-.39,3.67,3.67,0,0,0-.11-.37s0-.1,0-.11-.06-.19-.11-.35-.26-.73-.37-1l0-.08-.25-.57,0-.11-.17-.34a.33.33,0,0,0-.06-.12c0-.05-.06-.12-.08-.16a.91.91,0,0,0-.07-.14c-.07-.13-.32-.59-.42-.75-.19-.32-.31-.51-.5-.79l-.34-.49L82.38,9l-.28-.35-.4-.47-.07-.08-.25-.27-.11-.12-.1-.11-.11-.12c-.15-.16-.4-.4-.57-.56s-.71-.65-.9-.8-.43-.35-.62-.5l-.28-.21-.13-.1-.32-.23L78.14,5l-.7-.46-.38-.23-.24-.14-.14-.08L76,3.71l0,0-.74-.36L74.44,3l-.56-.23-.11,0c-.13-.06-.49-.18-.73-.27l-.09,0-.17-.06-.21-.06-.67-.2L71.59,2l-.51-.13-.7-.15-.14,0-.6-.11-.11,0-.13,0-.11,0-.73-.1L68,1.36l-.18,0-.45,0h-.2C66.92,1.28,65.67,1.26,65.24,1.27ZM67.5,8.69s0,0,0,.05a4.94,4.94,0,0,0-.06.63,6.61,6.61,0,0,0,.06,1,4,4,0,0,0,.09.51V11a.89.89,0,0,0,0,.14s0,.09,0,.12v0c0,.2.14.52.24.8l0,.1s.09.23.13.34a8.64,8.64,0,0,0,.46,1c0,.08.19.36.48.86a2.21,2.21,0,0,1,.26.53,1.67,1.67,0,0,1,0,.38,1.18,1.18,0,0,1-.09.49,2.22,2.22,0,0,1-.38.58c-.05.05-.31.28-.37.32a3.79,3.79,0,0,1-.6.35,2.77,2.77,0,0,1-.44.18v0s0-.05.21-.2a1.79,1.79,0,0,0,.52-.76.77.77,0,0,0,0-.3,1.07,1.07,0,0,0,0-.25.6.6,0,0,0-.09-.22,2.28,2.28,0,0,0-.54-.6,4.92,4.92,0,0,1-.85-.92,3.84,3.84,0,0,1-.56-1.08,2.69,2.69,0,0,1-.1-.41.24.24,0,0,1,0-.07A1.68,1.68,0,0,1,66,12a1.58,1.58,0,0,1,0-.36l0-.14c0-.06,0-.1,0-.1a9,9,0,0,0-1.11.88l-.18.17-.1.1c-.14.15-.31.33-.47.53l-.23.31a4.2,4.2,0,0,0-.45.8c-.06.16-.13.36-.16.48s0,.19,0,.23a2.9,2.9,0,0,0,0,.5,1.36,1.36,0,0,1,0,.16,2.64,2.64,0,0,0,.22.73,2.23,2.23,0,0,0,.2.33l.17.21a4,4,0,0,0,.39.33c.15.1.18.11.19.13s0,0-.05,0a2,2,0,0,1-.42-.17,2.68,2.68,0,0,1-.69-.46,2.17,2.17,0,0,1-.39-.43,2.38,2.38,0,0,1-.37-.66l-.12-.35v0a3.47,3.47,0,0,1-.09-.92,4.24,4.24,0,0,1,.06-.47.61.61,0,0,0,0-.13v0s.07-.24.1-.31.12-.3.17-.41a5,5,0,0,1,.44-.76,8.54,8.54,0,0,1,.83-1c.18-.18.54-.5.82-.74s.42-.33.66-.51l.24-.17.13-.09.39-.26.07-.05.26-.16c.16-.1.58-.35.65-.38l.06,0a.7.7,0,0,1,.19-.09Zm-1.61,7.6a.42.42,0,0,1,.15.11.24.24,0,0,1,0,.07,1.19,1.19,0,0,1,0,.35v1.46h.06l.6-.06.39-.06.33-.06.59-.14h.06l.12,0,.15,0c.26-.05.31-.07.42-.08a1.31,1.31,0,0,1,.76,0,.34.34,0,0,1,.14.12,3.93,3.93,0,0,1,0,.9c0,.79,0,8.52,0,9.38,0,.35,0,.65,0,.66a.58.58,0,0,1,0,.2.8.8,0,0,1-.41.42,2.43,2.43,0,0,1-.68.16l-.83,0h-4a6.18,6.18,0,0,1-.91-.05,2,2,0,0,1-.37-.09,1.35,1.35,0,0,1-.32-.18,1.08,1.08,0,0,1-.16-.2A.66.66,0,0,1,62,28.9c0-.08,0-.33,0-1.82,0-.95,0-1.82,0-1.92a1.7,1.7,0,0,1,0-.32c0-.07,0-1.61,0-3.42,0-3,0-3.3,0-3.37s0-.14.08-.19a.37.37,0,0,1,.24-.09h.19l.28,0,.09,0,.08,0H63l.39.1.73.16.37.07.1,0,.11,0,.21,0,.29,0h.21v-.87c0-.65,0-.89,0-.91a.36.36,0,0,1,.24-.24h.12A.22.22,0,0,1,65.89,16.29Z" transform="translate(-45.79 -1.27)"/></svg>